<mxfile host="app.diagrams.net" modified="2023-01-01T13:02:46.873Z" agent="5.0 (X11; CrOS x86_64 15183.69.0) AppleWebKit/537.36 (KHTML, like Gecko) Chrome/108.0.0.0 Safari/537.36" etag="TRaIzesILv6kQB7I2oc0" version="15.7.0" type="github">
  <diagram id="vW-K-dZ3wzf0yT1aHNVR" name="Page-1">
    <mxGraphModel dx="1171" dy="694" grid="1" gridSize="10" guides="1" tooltips="1" connect="1" arrows="1" fold="1" page="1" pageScale="1" pageWidth="827" pageHeight="1169" math="0" shadow="0">
      <root>
        <mxCell id="0" />
        <mxCell id="1" parent="0" />
        <mxCell id="kaWOxhdkECKjNWevFPLx-1" value="Test" style="whiteSpace=wrap;html=1;aspect=fixed;" vertex="1" parent="1">
          <mxGeometry x="430" y="260" width="80" height="80" as="geometry" />
        </mxCell>
      </root>
    </mxGraphModel>
  </diagram>
</mxfile>
